<svg width="56" height="56" viewBox="0 0 56 56" fill="none" xmlns="http://www.w3.org/2000/svg">
<rect x="0.5" y="0.5" width="54.9983" height="54.9983" rx="15.5" fill="#EFFFEA"/>
<rect x="0.5" y="0.5" width="54.9983" height="54.9983" rx="15.5" stroke="#78BD43"/>
<path d="M39.432 25.6661C39.9647 28.2805 39.5851 30.9985 38.3564 33.3668C37.1277 35.7351 35.1242 37.6106 32.6801 38.6806C30.2359 39.7505 27.4988 39.9502 24.9252 39.2464C22.3517 38.5425 20.0972 36.9777 18.5377 34.8128C16.9783 32.6479 16.2082 30.0138 16.3558 27.3498C16.5034 24.6858 17.5598 22.1529 19.3489 20.1735C21.1379 18.1942 23.5515 16.8879 26.1871 16.4727C28.8226 16.0575 31.5209 16.5583 33.8319 17.8918" stroke="#78BD43" stroke-width="2.3329" stroke-linecap="round" stroke-linejoin="round"/>
<path d="M24.5 26.8326L27.9993 30.332L39.6638 18.6675" stroke="#78BD43" stroke-width="2.3329" stroke-linecap="round" stroke-linejoin="round"/>
</svg>
